<mxfile host="app.diagrams.net" modified="2023-07-13T01:46:53.282Z" agent="Mozilla/5.0 (Windows NT 10.0; Win64; x64) AppleWebKit/537.36 (KHTML, like Gecko) Chrome/114.0.0.0 Safari/537.36 Edg/114.0.1823.51" etag="44M3-Dymomrk_dy_nTPs" version="21.5.0" type="github">
  <diagram id="wFE0QG_FPsp0jaGvCLVb" name="Page-1">
    <mxGraphModel dx="1379" dy="764" grid="1" gridSize="10" guides="1" tooltips="1" connect="1" arrows="1" fold="1" page="1" pageScale="1" pageWidth="850" pageHeight="1100" math="0" shadow="0">
      <root>
        <mxCell id="0" />
        <mxCell id="1" parent="0" />
        <mxCell id="WUURGBb7pN_388FKB7ez-1" value="JNI&lt;br&gt;&lt;br&gt;&lt;br&gt;&lt;br&gt;&lt;br&gt;&lt;br&gt;" style="rounded=1;whiteSpace=wrap;html=1;" vertex="1" parent="1">
          <mxGeometry x="115" y="20" width="620" height="110" as="geometry" />
        </mxCell>
        <mxCell id="WUURGBb7pN_388FKB7ez-2" value="com_eswin_media_SubtitleDecode" style="rounded=1;whiteSpace=wrap;html=1;" vertex="1" parent="1">
          <mxGeometry x="313" y="47.5" width="225" height="55" as="geometry" />
        </mxCell>
        <mxCell id="WUURGBb7pN_388FKB7ez-4" value="&lt;p style=&quot;&quot;&gt;&lt;span class=&quot;custom-cursor-default-hover&quot; style=&quot;background-color: initial;&quot;&gt;native&lt;/span&gt;&lt;/p&gt;&lt;p style=&quot;&quot;&gt;&lt;span class=&quot;custom-cursor-default-hover&quot; style=&quot;background-color: initial;&quot;&gt;&lt;br&gt;&lt;/span&gt;&lt;/p&gt;&lt;p style=&quot;&quot;&gt;&lt;span class=&quot;custom-cursor-default-hover&quot; style=&quot;background-color: initial;&quot;&gt;&lt;br&gt;&lt;/span&gt;&lt;/p&gt;&lt;p style=&quot;&quot;&gt;&lt;span class=&quot;custom-cursor-default-hover&quot; style=&quot;background-color: initial;&quot;&gt;&lt;br&gt;&lt;/span&gt;&lt;/p&gt;&lt;p style=&quot;&quot;&gt;&lt;span class=&quot;custom-cursor-default-hover&quot; style=&quot;background-color: initial;&quot;&gt;&lt;br&gt;&lt;/span&gt;&lt;/p&gt;&lt;p style=&quot;&quot;&gt;&lt;span class=&quot;custom-cursor-default-hover&quot; style=&quot;background-color: initial;&quot;&gt;&lt;br&gt;&lt;/span&gt;&lt;/p&gt;&lt;p style=&quot;&quot;&gt;&lt;span class=&quot;custom-cursor-default-hover&quot; style=&quot;background-color: initial;&quot;&gt;&lt;br&gt;&lt;/span&gt;&lt;/p&gt;&lt;p style=&quot;&quot;&gt;&lt;span class=&quot;custom-cursor-default-hover&quot; style=&quot;background-color: initial;&quot;&gt;&lt;br&gt;&lt;/span&gt;&lt;/p&gt;&lt;p style=&quot;&quot;&gt;&lt;span class=&quot;custom-cursor-default-hover&quot; style=&quot;background-color: initial;&quot;&gt;&lt;br&gt;&lt;/span&gt;&lt;/p&gt;&lt;p style=&quot;&quot;&gt;&lt;span class=&quot;custom-cursor-default-hover&quot; style=&quot;background-color: initial;&quot;&gt;&lt;br&gt;&lt;/span&gt;&lt;/p&gt;&lt;p style=&quot;&quot;&gt;&lt;span class=&quot;custom-cursor-default-hover&quot; style=&quot;background-color: initial;&quot;&gt;&lt;br&gt;&lt;/span&gt;&lt;/p&gt;&lt;p style=&quot;&quot;&gt;&lt;span class=&quot;custom-cursor-default-hover&quot; style=&quot;background-color: initial;&quot;&gt;&lt;br&gt;&lt;/span&gt;&lt;/p&gt;" style="rounded=1;whiteSpace=wrap;html=1;align=center;" vertex="1" parent="1">
          <mxGeometry x="50" y="170" width="770" height="710" as="geometry" />
        </mxCell>
        <mxCell id="WUURGBb7pN_388FKB7ez-5" value="binder_client" style="rounded=1;whiteSpace=wrap;html=1;" vertex="1" parent="1">
          <mxGeometry x="75" y="210" width="700" height="150" as="geometry" />
        </mxCell>
        <mxCell id="WUURGBb7pN_388FKB7ez-6" value="binder_server" style="rounded=1;whiteSpace=wrap;html=1;" vertex="1" parent="1">
          <mxGeometry x="80" y="390" width="705" height="370" as="geometry" />
        </mxCell>
        <mxCell id="WUURGBb7pN_388FKB7ez-8" value="SubtitleDecode" style="rounded=1;whiteSpace=wrap;html=1;" vertex="1" parent="1">
          <mxGeometry x="190" y="240" width="120" height="60" as="geometry" />
        </mxCell>
        <mxCell id="WUURGBb7pN_388FKB7ez-9" value="SubtitleDecodeService" style="rounded=1;whiteSpace=wrap;html=1;" vertex="1" parent="1">
          <mxGeometry x="185" y="420" width="130" height="60" as="geometry" />
        </mxCell>
        <mxCell id="WUURGBb7pN_388FKB7ez-10" value="SubtitleExtDecode" style="rounded=1;whiteSpace=wrap;html=1;" vertex="1" parent="1">
          <mxGeometry x="100" y="550" width="130" height="60" as="geometry" />
        </mxCell>
        <mxCell id="WUURGBb7pN_388FKB7ez-11" value="SubtitleDecodeImpl" style="rounded=1;whiteSpace=wrap;html=1;" vertex="1" parent="1">
          <mxGeometry x="100" y="630" width="130" height="60" as="geometry" />
        </mxCell>
        <mxCell id="WUURGBb7pN_388FKB7ez-12" value="SubtitleDecodeDataQueue" style="rounded=1;whiteSpace=wrap;html=1;" vertex="1" parent="1">
          <mxGeometry x="250" y="630" width="140" height="60" as="geometry" />
        </mxCell>
      </root>
    </mxGraphModel>
  </diagram>
</mxfile>
